<svg xmlns="http://www.w3.org/2000/svg" width="360" height="360" viewBox="0 0 360 360"><g font-family="'Courier Prime','Courier New',monospace" fill="#000"><text x="18" y="41" font-size="22">%</text><text x="80" y="42" font-size="15">~/</text><text x="140" y="39" font-size="15">||</text><text x="198" y="33" font-size="15">&amp;&amp;</text><text x="261" y="44" font-size="13">*</text><text x="316" y="38" font-size="15">*</text><text x="4" y="100" font-size="13">=&gt;</text><text x="65" y="90" font-size="15">*</text><text x="124" y="98" font-size="18">%</text><text x="202" y="90" font-size="15">git</text><text x="253" y="99" font-size="13">|&gt;</text><text x="306" y="98" font-size="18">&lt;&gt;</text><text x="21" y="146" font-size="18">::</text><text x="71" y="160" font-size="18">{ }</text><text x="126" y="162" font-size="13">[]</text><text x="187" y="153" font-size="22">&amp;&amp;</text><text x="244" y="144" font-size="15">$</text><text x="305" y="159" font-size="22">-&gt;</text><text x="16" y="217" font-size="13">;</text><text x="70" y="212" font-size="18">&amp;&amp;</text><text x="133" y="214" font-size="13">&lt;&gt;</text><text x="187" y="208" font-size="15">-&gt;</text><text x="247" y="204" font-size="13">%</text><text x="319" y="209" font-size="15">%</text><text x="20" y="270" font-size="15">&lt;&gt;</text><text x="76" y="267" font-size="22">&lt;&gt;</text><text x="130" y="264" font-size="18">::=</text><text x="202" y="273" font-size="13">$</text><text x="249" y="276" font-size="13">=&gt;</text><text x="308" y="270" font-size="22">//</text><text x="4" y="343" font-size="18">@</text><text x="73" y="336" font-size="13">&amp;&amp;</text><text x="126" y="330" font-size="15">{ }</text><text x="195" y="335" font-size="22">!=</text><text x="262" y="339" font-size="15">::=</text><text x="316" y="329" font-size="15">λ</text></g></svg>
